<?xml version="1.0" encoding="UTF-8"?>
<svg version="1.1" xmlns="http://www.w3.org/2000/svg" width="256" height="256">
<path d="M0 0 C3.18378053 0.93213237 5.53998967 2.32119131 8.33959961 4.10107422 C9.39276367 4.76558594 10.44592773 5.43009766 11.53100586 6.11474609 C12.62026367 6.81277344 13.70952148 7.51080078 14.83178711 8.22998047 C15.9287793 8.92414062 17.02577148 9.61830078 18.15600586 10.33349609 C22.02861989 12.78773554 25.89193966 15.24924883 29.70678711 17.79248047 C33.92823743 17.41724044 37.72800431 16.21347433 41.70678711 14.79248047 C41.70678711 15.45248047 41.70678711 16.11248047 41.70678711 16.79248047 C43.68678711 17.28748047 43.68678711 17.28748047 45.70678711 17.79248047 C45.70678711 25.38248047 45.70678711 32.97248047 45.70678711 40.79248047 C46.36678711 40.79248047 47.02678711 40.79248047 47.70678711 40.79248047 C47.70678711 40.13248047 47.70678711 39.47248047 47.70678711 38.79248047 C49.88763132 37.29276828 52.04901837 35.93415939 54.33178711 34.60498047 C55.00459717 34.21004395 55.67740723 33.81510742 56.37060547 33.40820312 C58.47404755 32.18707158 60.58727108 30.98547502 62.70678711 29.79248047 C63.36275879 29.42268066 64.01873047 29.05288086 64.69458008 28.671875 C66.54117185 27.64661861 68.40034749 26.65130698 70.26928711 25.66748047 C71.36370117 25.08740234 72.45811523 24.50732422 73.58569336 23.90966797 C76.70678711 22.79248047 76.70678711 22.79248047 79.55834961 23.29248047 C84.06581421 24.00830611 87.32170415 22.50346899 91.51928711 20.91748047 C97.66183608 18.62384326 103.14906341 17.30143813 109.70678711 16.79248047 C110.33178711 18.66748047 110.33178711 18.66748047 110.70678711 20.79248047 C110.04678711 21.45248047 109.38678711 22.11248047 108.70678711 22.79248047 C109.86694336 22.64810547 111.02709961 22.50373047 112.22241211 22.35498047 C121.08914349 21.28869187 129.75783676 20.47663516 138.70678711 20.79248047 C139.03678711 22.44248047 139.36678711 24.09248047 139.70678711 25.79248047 C139.09383789 25.96263672 138.48088867 26.13279297 137.84936523 26.30810547 C117.61441972 31.99871094 94.33478956 38.78386075 83.23413086 58.39404297 C74.51941633 76.43324797 77.28171444 95.57838687 83.51928711 113.97998047 C88.70649616 128.66867445 95.59773871 143.21933474 102.86767578 156.99169922 C104.1608932 159.7670183 104.15442323 161.78692367 103.70678711 164.79248047 C96.09158357 170.57545458 83.03796438 171.80793211 73.70678711 170.79248047 C60.08522245 168.74924577 49.61082959 165.21751494 38.70678711 156.79248047 C38.01713867 156.28072266 37.32749023 155.76896484 36.61694336 155.24169922 C25.41720079 146.30408287 19.14279825 133.1005139 14.70678711 119.79248047 C19.18288056 134.48601369 19.18288056 134.48601369 26.70678711 147.79248047 C27.43768555 148.93910156 27.43768555 148.93910156 28.18334961 150.10888672 C36.52406994 162.25018159 52.95864564 169.37360251 67.06225586 172.28466797 C88.76191977 175.30820099 108.63869668 169.00657166 126.46850586 156.57763672 C131.45994425 152.59668149 136.08291573 148.18946137 140.70678711 143.79248047 C145.60584011 145.91491886 148.9619205 148.70877205 152.58178711 152.54248047 C153.63712325 153.63031849 154.69441231 154.71626539 155.75366211 155.80029297 C156.2609082 156.32010742 156.7681543 156.83992187 157.29077148 157.37548828 C159.06309683 159.14903592 160.92137149 160.79440378 162.83178711 162.41748047 C166.88563017 165.86451127 170.5715634 169.63692503 174.30053711 173.42919922 C176.38285577 175.47433362 178.50320697 177.33325577 180.76928711 179.16748047 C183.70678711 181.79248047 183.70678711 181.79248047 184.64038086 183.51904297 C184.82007424 189.67089887 178.29817218 196.35133878 174.76928711 201.10498047 C174.25688477 201.81976563 173.74448242 202.53455078 173.21655273 203.27099609 C171.11458482 206.10478003 169.17572599 208.4386377 166.35131836 210.56982422 C161.90477548 210.9442008 158.94232016 208.43210296 155.33178711 206.04248047 C154.54102783 205.54474121 153.75026855 205.04700195 152.93554688 204.53417969 C149.02879553 202.05393883 145.22728106 199.47480875 141.50756836 196.72216797 C135.42226961 191.85949174 135.42226961 191.85949174 128.23413086 189.66357422 C125.82557666 190.43728401 123.89600447 191.52368783 121.70678711 192.79248047 C119.40568478 193.71719755 117.09227839 194.61171488 114.76928711 195.47998047 C113.66713867 195.91697266 112.56499023 196.35396484 111.42944336 196.80419922 C108.70678711 197.79248047 108.70678711 197.79248047 106.70678711 197.79248047 C106.57103271 198.57260498 106.43527832 199.35272949 106.29541016 200.15649414 C105.66533385 203.76496757 105.02983592 207.37246704 104.39428711 210.97998047 C104.18094727 212.20652344 103.96760742 213.43306641 103.74780273 214.69677734 C99.65593074 237.84333684 99.65593074 237.84333684 97.70678711 239.79248047 C95.25848284 239.8809184 92.83858112 239.90776799 90.39038086 239.89013672 C89.65932632 239.88872177 88.92827179 239.88730682 88.17506409 239.885849 C85.83143079 239.88023455 83.48789172 239.86767969 81.14428711 239.85498047 C79.55900203 239.84996733 77.97371545 239.8454041 76.38842773 239.84130859 C72.49451101 239.83026044 68.60066505 239.81298619 64.70678711 239.79248047 C61.97243894 233.07496242 60.2707917 226.28925999 58.64428711 219.22998047 C57.89216851 216.00363798 57.13775984 212.77954214 56.34375 209.56323242 C55.70678711 206.79248047 55.70678711 206.79248047 55.19897461 202.86279297 C52.70631588 197.73391924 47.96551597 196.37562484 42.89428711 194.22998047 C41.39671875 193.53678711 41.39671875 193.53678711 39.86889648 192.82958984 C34.66371493 190.23560845 34.66371493 190.23560845 29.11645508 190.5246582 C26.91792351 191.6813932 24.93197705 192.87618729 22.92163086 194.33154297 C22.23166016 194.82630127 21.54168945 195.32105957 20.83081055 195.83081055 C20.10925781 196.35441162 19.38770508 196.8780127 18.64428711 197.41748047 C17.12789402 198.49765759 15.61096375 199.57708097 14.09350586 200.65576172 C12.00063672 202.14976087 9.90953278 203.64575178 7.82641602 205.15332031 C6.21290764 206.31743943 4.58531938 207.46197335 2.95678711 208.60498047 C2.05444336 209.25080078 1.15209961 209.89662109 0.22241211 210.56201172 C-2.29321289 211.79248047 -2.29321289 211.79248047 -4.79321289 211.83544922 C-8.21643792 210.40732253 -10.20121696 208.06152143 -12.54321289 205.29248047 C-13.50195283 204.19420407 -14.46292119 203.09786926 -15.42602539 202.00341797 C-15.90330078 201.45911133 -16.38057617 200.91480469 -16.87231445 200.35400391 C-19.5995402 197.35686716 -22.61474229 194.6466086 -25.61352539 191.92529297 C-27.77350631 189.18261952 -28.13934618 187.25900703 -28.29321289 183.79248047 C-27.09647741 180.26950636 -24.65978787 177.48198173 -22.41821289 174.54248047 C-21.23291992 172.98013672 -21.23291992 172.98013672 -20.02368164 171.38623047 C-19.37471924 170.53351563 -19.37471924 170.53351563 -18.71264648 169.66357422 C-16.03601165 166.13524099 -13.38565806 162.58714411 -10.73071289 159.04248047 C-9.68784433 157.65178033 -8.64488386 156.26114911 -7.60180664 154.87060547 C-5.03465309 152.19097348 -5.03465309 152.19097348 -5.51635742 150.0234375 C-6.73558609 142.66301653 -8.76356431 136.01571032 -14.29321289 130.79248047 C-24.6258269 125.24915416 -37.41673655 123.56795863 -48.83422852 121.49072266 C-52.29321289 120.79248047 -52.29321289 120.79248047 -53.29321289 119.79248047 C-53.38172818 117.19888725 -53.40847234 114.63208356 -53.39086914 112.03857422 C-53.38874672 110.87540428 -53.38874672 110.87540428 -53.38658142 109.68873596 C-53.38096634 107.20244553 -53.36841135 104.71624387 -53.35571289 102.22998047 C-53.35069983 100.54834114 -53.34613659 98.86670041 -53.34204102 97.18505859 C-53.33099202 93.05416481 -53.31371734 88.92333771 -53.29321289 84.79248047 C-26.33556549 79.23583937 -26.33556549 79.23583937 -14.29321289 77.79248047 C-14.05538086 76.91849609 -14.05538086 76.91849609 -13.81274414 76.02685547 C-12.07359093 69.91579778 -9.83502679 64.23125901 -7.18383789 58.45654297 C-6.17214683 55.43034428 -6.27103069 54.73370205 -7.29321289 51.79248047 C-8.35830488 49.80936382 -9.4805464 47.85658101 -10.63696289 45.92529297 C-11.30598633 44.79220703 -11.97500977 43.65912109 -12.66430664 42.49169922 C-13.7273617 40.70358861 -14.79330458 38.91732774 -15.86401367 37.13378906 C-16.90068273 35.40249912 -17.92521001 33.6639573 -18.94946289 31.92529297 C-19.5662793 30.89291504 -20.1830957 29.86053711 -20.81860352 28.796875 C-22.63365482 25.09885822 -23.44127848 21.77150345 -23.13305664 17.65185547 C-21.92673738 14.98112073 -20.18436292 13.80077472 -17.85571289 12.04248047 C-15.03937846 9.89996817 -12.26559126 7.7687195 -9.58227539 5.46044922 C-8.72375977 4.72439453 -7.86524414 3.98833984 -6.98071289 3.22998047 C-6.20083008 2.54806641 -5.42094727 1.86615234 -4.61743164 1.16357422 C-2.29321289 -0.20751953 -2.29321289 -0.20751953 0 0 Z M15.70678711 78.79248047 C16.70678711 80.79248047 16.70678711 80.79248047 16.70678711 80.79248047 Z M14.70678711 81.79248047 C15.70678711 84.79248047 15.70678711 84.79248047 15.70678711 84.79248047 Z M13.70678711 84.79248047 C14.70678711 88.79248047 14.70678711 88.79248047 14.70678711 88.79248047 Z M12.70678711 88.79248047 C12.70678711 90.44248047 12.70678711 92.09248047 12.70678711 93.79248047 C13.03678711 93.79248047 13.36678711 93.79248047 13.70678711 93.79248047 C13.70678711 92.14248047 13.70678711 90.49248047 13.70678711 88.79248047 C13.37678711 88.79248047 13.04678711 88.79248047 12.70678711 88.79248047 Z M11.70678711 94.79248047 C11.70678711 99.08248047 11.70678711 103.37248047 11.70678711 107.79248047 C12.03678711 107.79248047 12.36678711 107.79248047 12.70678711 107.79248047 C12.70678711 103.50248047 12.70678711 99.21248047 12.70678711 94.79248047 C12.37678711 94.79248047 12.04678711 94.79248047 11.70678711 94.79248047 Z " fill="#772626" transform="translate(60.293212890625,15.20751953125)"/>
<path d="M0 0 C-1.62968053 3.25936106 -5.13363213 4.12474222 -8.3125 5.625 C-24.28667038 13.43700387 -38.67762652 23.17262248 -46 40 C-46.26635254 40.5772583 -46.53270508 41.1545166 -46.80712891 41.74926758 C-49.17017753 47.29635304 -49.47066995 52.32907428 -49.375 58.3125 C-49.36267334 59.24819824 -49.35034668 60.18389648 -49.33764648 61.14794922 C-48.89248861 79.45526628 -39.70420138 96.44640312 -29 111 C-28.2678125 112.00417969 -27.535625 113.00835937 -26.78125 114.04296875 C-23.2013149 118.87955915 -19.52268016 123.62501582 -15.75 128.3125 C-14.49877968 129.87402296 -13.2486754 131.43644124 -12 133 C-11.20335937 133.99 -11.20335937 133.99 -10.390625 135 C-8.35858 137.64850808 -7.0617574 139.52652659 -6.625 142.875 C-7 145 -7 145 -8 146 C-9.93025889 146.22519687 -11.86129442 146.44748252 -13.796875 146.62109375 C-16.05964184 146.91222367 -16.05964184 146.91222367 -18.19921875 148.015625 C-27.94445072 151.44072745 -42.66436652 149.90109257 -52 146 C-71.18500844 136.33892347 -83.72067669 122.49523537 -90.875 102 C-96.0368532 85.79570136 -93.53972578 66.9448136 -86 52 C-79.53904639 40.70801516 -71.02587067 31.22670758 -61 23 C-60.50113281 22.47921875 -60.00226563 21.9584375 -59.48828125 21.421875 C-53.52888484 15.72838341 -44.84460085 11.76410348 -37.5625 7.9375 C-36.45003906 7.34839844 -35.33757812 6.75929688 -34.19140625 6.15234375 C-31 5 -31 5 -28.1484375 5.5 C-23.60547837 6.22146249 -20.29048833 4.66597773 -16.0625 3.0625 C-10.47032704 0.9590221 -6.00756155 -0.39197139 0 0 Z " fill="#02B101" transform="translate(168,33)"/>
<path d="M0 0 C-1.62968053 3.25936106 -5.13363213 4.12474222 -8.3125 5.625 C-24.28667038 13.43700387 -38.67762652 23.17262248 -46 40 C-46.26635254 40.5772583 -46.53270508 41.1545166 -46.80712891 41.74926758 C-49.17017753 47.29635304 -49.47066995 52.32907428 -49.375 58.3125 C-49.36267334 59.24819824 -49.35034668 60.18389648 -49.33764648 61.14794922 C-48.89248861 79.45526628 -39.70420138 96.44640312 -29 111 C-28.2678125 112.00417969 -27.535625 113.00835937 -26.78125 114.04296875 C-23.2013149 118.87955915 -19.52268016 123.62501582 -15.75 128.3125 C-14.49877968 129.87402296 -13.2486754 131.43644124 -12 133 C-11.46890625 133.66 -10.9378125 134.32 -10.390625 135 C-8.35858 137.64850808 -7.0617574 139.52652659 -6.625 142.875 C-7 145 -7 145 -8 146 C-9.66617115 146.04063832 -11.33388095 146.042721 -13 146 C-12.979375 145.030625 -12.95875 144.06125 -12.9375 143.0625 C-13.85537886 136.57178518 -20.12668905 132.48606913 -24.79882812 128.44360352 C-37.23352872 117.67022538 -49.49748175 106.22657231 -58 92 C-58 91.34 -58 90.68 -58 90 C-58.66 90 -59.32 90 -60 90 C-60.98238408 87.58459694 -61.96100218 85.16778178 -62.9375 82.75 C-63.21529297 82.06808594 -63.49308594 81.38617188 -63.77929688 80.68359375 C-68.11127974 69.93192544 -69.10442325 56.31998144 -65.046875 45.23828125 C-61.89602106 38.50156741 -58.35181585 33.17686793 -53 28 C-52.16082031 27.12601563 -51.32164063 26.25203125 -50.45703125 25.3515625 C-42.21427833 16.85312596 -34.01105561 10.47021765 -23 6 C-21.45689574 5.29480395 -19.91522051 4.58647242 -18.375 3.875 C-12.17789528 1.14224896 -6.83153681 -0.27883824 0 0 Z " fill="#D8D823" transform="translate(168,33)"/>
<path d="M0 0 C2.475 0.495 2.475 0.495 5 1 C4.7215625 1.9590625 4.7215625 1.9590625 4.4375 2.9375 C4.293125 3.618125 4.14875 4.29875 4 5 C4.495 5.495 4.495 5.495 5 6 C5.78632813 5.85691406 6.57265625 5.71382812 7.3828125 5.56640625 C12.23219468 4.80705375 16.9757405 4.89434934 21.875 4.9375 C22.84953125 4.94201172 23.8240625 4.94652344 24.828125 4.95117188 C27.21881434 4.96289094 29.6093744 4.97929781 32 5 C31.67 5.66 31.34 6.32 31 7 C28.80735368 7.49259451 26.59355484 7.89172406 24.375 8.25 C6.67846136 11.45865459 -12.30214487 20.00352434 -23.0703125 34.85546875 C-31.7486108 48.88962061 -32.99927633 63.98808382 -29.875 80 C-26.59539446 93.20952231 -21.95088956 105.70616777 -16.15966797 118.01220703 C-13.70908425 123.24249294 -11.70182594 128.47956317 -10 134 C-23.13098569 121.31692944 -33.59575324 105.49572029 -41.5 89.125 C-41.921604 88.25738037 -42.34320801 87.38976074 -42.77758789 86.49584961 C-48.67738287 73.86310557 -50.43473219 58.93746914 -47.08984375 45.28515625 C-45.91742071 42.35598356 -44.60261751 39.71507274 -43 37 C-42.5771875 36.23042969 -42.154375 35.46085937 -41.71875 34.66796875 C-32.18108338 18.8365512 -15.77205931 8.75146455 1 2 C0.505 1.01 0.505 1.01 0 0 Z " fill="#B85219" transform="translate(166,32)"/>
<path d="M0 0 C1.32 0.33 2.64 0.66 4 1 C6.98053399 21.1240968 6.98053399 21.1240968 3.93261719 27.08886719 C1.04429365 30.5416448 -2.61694943 32.99161714 -6.25634766 35.59423828 C-9.23093379 37.99239943 -11.33905225 40.93735974 -13.5 44.0625 C-13.90710205 44.65047363 -14.3142041 45.23844727 -14.73364258 45.84423828 C-18.15689594 50.96308184 -20.80068991 56.26057234 -23 62 C-23.4125 63.051875 -23.825 64.10375 -24.25 65.1875 C-29.16206525 83.60774468 -25.54573186 102.30693869 -17 119 C-13.59898414 124.21038632 -9.56613417 128.7763259 -5 133 C-4.28650391 133.68642578 -4.28650391 133.68642578 -3.55859375 134.38671875 C10.13438829 146.95786612 25.03232834 149.93257338 43.01635742 149.2109375 C45.58369838 148.93793041 47.66761033 148.07935054 50 147 C52.66572015 146.50686503 55.29815717 146.27476368 58 146 C58.57759958 141.09040358 56.67867749 138.98921326 54 135 C51.43885972 129.76941252 49.23721079 124.37578764 47 119 C46.39067627 117.54303711 46.39067627 117.54303711 45.76904297 116.05664062 C26.0910394 68.75870618 26.0910394 68.75870618 34.68359375 44.95703125 C42.33041972 27.78003641 56.51249749 18.15294944 73.4375 11.1875 C80.46751675 8.61850622 87.63761108 7.2525226 95 6 C90.05 5.505 90.05 5.505 85 5 C85 4.67 85 4.34 85 4 C88.96 4 92.92 4 97 4 C97.33 5.65 97.66 7.3 98 9 C97.08057617 9.25523438 97.08057617 9.25523438 96.14257812 9.515625 C75.90763261 15.20623047 52.62800245 21.99138028 41.52734375 41.6015625 C32.81262922 59.6407675 35.57492734 78.7859064 41.8125 97.1875 C46.99970905 111.87619398 53.8909516 126.42685427 61.16088867 140.19921875 C62.45410609 142.97453783 62.44763612 144.9944432 62 148 C54.38479646 153.78297411 41.33117727 155.01545164 32 154 C18.37843534 151.9567653 7.90404248 148.42503447 -3 140 C-3.68964844 139.48824219 -4.37929687 138.97648438 -5.08984375 138.44921875 C-16.28958632 129.5116024 -22.56398886 116.30803343 -27 103 C-23.24680313 115.21785363 -19.51946741 126.1698453 -11 136 C-11.33 136.66 -11.66 137.32 -12 138 C-26.03555677 124.18722984 -33.94977374 104.2795261 -34.5090332 84.55200195 C-34.48167715 77.58064418 -34.0115393 70.7012995 -32 64 C-31.74347656 63.13503906 -31.48695312 62.27007812 -31.22265625 61.37890625 C-27.88989068 51.29478724 -22.76751012 42.57551342 -15.625 34.75 C-15.15843994 34.23824219 -14.69187988 33.72648437 -14.21118164 33.19921875 C-11.32867033 30.14205502 -8.34635091 27.88963174 -4.875 25.5625 C-1.35597268 22.65820473 -0.69890093 20.22330172 -0.22265625 15.83984375 C0.12304631 10.55827686 0.14987511 5.28937213 0 0 Z M-26 62 C-25 64 -25 64 -25 64 Z M-27 65 C-26 68 -26 68 -26 68 Z M-28 68 C-27 72 -27 72 -27 72 Z M-29 72 C-29 73.65 -29 75.3 -29 77 C-28.67 77 -28.34 77 -28 77 C-28 75.35 -28 73.7 -28 72 C-28.33 72 -28.66 72 -29 72 Z M-30 78 C-30 82.29 -30 86.58 -30 91 C-29.67 91 -29.34 91 -29 91 C-29 86.71 -29 82.42 -29 78 C-29.33 78 -29.66 78 -30 78 Z " fill="#040300" transform="translate(102,32)"/>
<path d="M0 0 C3.80303152 1.4940481 5.92082935 3.48140352 8 7 C6.85616716 12.94256904 3.13596535 17.41985652 -0.375 22.1875 C-1.24125 23.39696289 -1.24125 23.39696289 -2.125 24.63085938 C-7.71140579 32.30260158 -7.71140579 32.30260158 -11 34 C-15.36476339 33.09469948 -18.72031592 31.10695717 -22.40625 28.6640625 C-23.39753906 28.01179688 -24.38882813 27.35953125 -25.41015625 26.6875 C-26.42980469 26.006875 -27.44945312 25.32625 -28.5 24.625 C-29.51964844 23.95210937 -30.53929687 23.27921875 -31.58984375 22.5859375 C-33.07677734 21.60367188 -33.07677734 21.60367188 -34.59375 20.6015625 C-35.54000244 19.97660889 -36.48625488 19.35165527 -37.46118164 18.70776367 C-38.96274116 17.6977234 -40.45221615 16.66859041 -41.91186523 15.59887695 C-44.71904481 13.5028671 -44.71904481 13.5028671 -48.09765625 13.08984375 C-48.74605469 13.36957031 -49.39445312 13.64929688 -50.0625 13.9375 C-50.81789063 14.24171875 -51.57328125 14.5459375 -52.3515625 14.859375 C-53.22554687 15.23578125 -54.09953125 15.6121875 -55 16 C-57.30983109 16.90269261 -59.62245059 17.79827572 -61.9375 18.6875 C-63.03964844 19.12449219 -64.14179688 19.56148437 -65.27734375 20.01171875 C-68 21 -68 21 -70 21 C-70.13575439 21.78012451 -70.27150879 22.56024902 -70.41137695 23.36401367 C-71.04145326 26.9724871 -71.67695119 30.57998657 -72.3125 34.1875 C-72.52583984 35.41404297 -72.73917969 36.64058594 -72.95898438 37.90429688 C-77.05085637 61.05085637 -77.05085637 61.05085637 -79 63 C-81.44830426 63.08843793 -83.86820599 63.11528752 -86.31640625 63.09765625 C-87.04746078 63.0962413 -87.77851532 63.09482635 -88.53172302 63.09336853 C-90.87535632 63.08775408 -93.21889539 63.07519922 -95.5625 63.0625 C-97.14778508 63.05748686 -98.73307166 63.05292363 -100.31835938 63.04882812 C-104.2122761 63.03777997 -108.10612205 63.02050572 -112 63 C-112.5345256 61.75579353 -113.05208611 60.50429064 -113.5625 59.25 C-113.85253906 58.55390625 -114.14257812 57.8578125 -114.44140625 57.140625 C-115.07831803 54.69987216 -114.80248831 53.3596345 -114 51 C-113.67 53.31 -113.34 55.62 -113 58 C-102.77 58 -92.54 58 -82 58 C-81.505 53.05 -81.505 53.05 -81 48 C-80.26063955 43.5099048 -79.37161229 39.05301544 -78.47094727 34.59301758 C-78.05866354 32.54342776 -77.65889026 30.49164129 -77.25976562 28.43945312 C-76.99814184 27.12745519 -76.73579855 25.81560047 -76.47265625 24.50390625 C-76.12086304 22.73768921 -76.12086304 22.73768921 -75.76196289 20.93579102 C-75 18 -75 18 -73 15 C-69.34755835 13.10126343 -65.46466029 11.72715086 -61.625 10.25 C-60.57054687 9.82589844 -59.51609375 9.40179688 -58.4296875 8.96484375 C-57.41390625 8.56910156 -56.398125 8.17335937 -55.3515625 7.765625 C-54.42166504 7.40243164 -53.49176758 7.03923828 -52.53369141 6.66503906 C-48.60121905 5.63285033 -46.864977 6.50118985 -43.39379883 8.50292969 C-41.94009888 9.45280762 -41.94009888 9.45280762 -40.45703125 10.421875 C-39.38259766 11.11796875 -38.30816406 11.8140625 -37.20117188 12.53125 C-36.07134835 13.27042655 -34.94179249 14.01001239 -33.8125 14.75 C-26.66304265 19.41287189 -19.54832599 24.0043272 -12 28 C-11.77183594 27.31035156 -11.54367188 26.62070313 -11.30859375 25.91015625 C-9.70531017 22.34464501 -7.48230772 19.47186206 -5.0625 16.4375 C-4.17826573 15.31129187 -3.29414832 14.18499199 -2.41015625 13.05859375 C-1.21712891 11.54458984 -1.21712891 11.54458984 0 10 C1.00518046 8.67056778 2.00787578 7.33920398 3 6 C2.5359375 5.071875 2.5359375 5.071875 2.0625 4.125 C1.375 2.75 0.6875 1.375 0 0 Z " fill="#030101" transform="translate(237,192)"/>
<path d="M0 0 C1.67913229 0.76487165 3.34325307 1.56277866 5 2.375 C6.41156186 2.94374609 7.82589614 3.50563577 9.2421875 4.0625 C20.80581127 8.7914019 20.80581127 8.7914019 23.796875 12.7578125 C25.1631999 16.66343932 25.19399051 19.41879265 24 23.375 C23.83951172 21.81458984 23.83951172 21.81458984 23.67578125 20.22265625 C22.88564991 17.47072381 22.20621726 16.52362463 19.85302734 14.82763672 C17.00981404 13.35148215 14.13774643 12.06075359 11.1875 10.8125 C9.68993164 10.11930664 9.68993164 10.11930664 8.16210938 9.41210938 C2.95692782 6.81812798 2.95692782 6.81812798 -2.59033203 7.10717773 C-4.7888636 8.26391273 -6.77481006 9.45870682 -8.78515625 10.9140625 C-9.47512695 11.4088208 -10.16509766 11.9035791 -10.87597656 12.41333008 C-11.5975293 12.93693115 -12.31908203 13.46053223 -13.0625 14 C-14.57889308 15.08017712 -16.09582336 16.1596005 -17.61328125 17.23828125 C-19.70615039 18.7322804 -21.79725433 20.22827131 -23.88037109 21.73583984 C-25.49387947 22.89995896 -27.12146773 24.04449288 -28.75 25.1875 C-30.10351562 26.15623047 -30.10351562 26.15623047 -31.484375 27.14453125 C-34 28.375 -34 28.375 -36.5 28.41796875 C-39.92332409 26.98980073 -41.90776367 24.64390316 -44.25 21.875 C-45.20882625 20.77809884 -46.16979363 19.68306587 -47.1328125 18.58984375 C-47.61008789 18.04569824 -48.08736328 17.50155273 -48.57910156 16.94091797 C-51.31809607 13.9223766 -54.32773792 11.1737616 -57.3203125 8.41015625 C-59.26102245 6.05873791 -59.65616036 4.37057264 -60 1.375 C-56.53370165 2.86153506 -54.30977964 4.83222351 -51.671875 7.5078125 C-50.87265625 8.31347656 -50.0734375 9.11914062 -49.25 9.94921875 C-48.425 10.79097656 -47.6 11.63273438 -46.75 12.5 C-45.48929688 13.77423828 -45.48929688 13.77423828 -44.203125 15.07421875 C-42.13084317 17.17004923 -40.06337607 19.27040713 -38 21.375 C-34.43906248 20.07397876 -31.53673031 18.5265604 -28.453125 16.328125 C-27.6075 15.73 -26.761875 15.131875 -25.890625 14.515625 C-24.58351563 13.57976562 -24.58351563 13.57976562 -23.25 12.625 C-20.67716827 10.79611962 -18.10243342 8.9702421 -15.52148438 7.15283203 C-13.83842332 5.96615014 -12.16259795 4.76913995 -10.49414062 3.56201172 C-9.31368164 2.73080811 -9.31368164 2.73080811 -8.109375 1.8828125 C-7.41295898 1.38410645 -6.71654297 0.88540039 -5.99902344 0.37158203 C-3.60366949 -0.82258441 -2.54106552 -0.71857189 0 0 Z " fill="#020000" transform="translate(92,198.625)"/>
<path d="M0 0 C2.475 0.495 2.475 0.495 5 1 C4.7215625 1.9590625 4.7215625 1.9590625 4.4375 2.9375 C4.293125 3.618125 4.14875 4.29875 4 5 C5.44754255 6.44754255 7.03962913 6.55733561 9 7 C7.72125 7.103125 6.4425 7.20625 5.125 7.3125 C-11.73968295 9.25943688 -25.85699061 17.74516164 -36.375 31 C-45.48531987 43.99210834 -46.88213094 57.69147539 -44.68359375 73.23730469 C-43.23356345 80.35019604 -40.40960197 86.81407745 -36.85546875 93.109375 C-36.57316406 93.73328125 -36.29085937 94.3571875 -36 95 C-36.495 95.99 -36.495 95.99 -37 97 C-45.75028403 80.43473547 -51.77691006 64.31746858 -47.0859375 45.29296875 C-45.91786183 42.35770762 -44.60459633 39.71842516 -43 37 C-42.5771875 36.23042969 -42.154375 35.46085937 -41.71875 34.66796875 C-32.18108338 18.8365512 -15.77205931 8.75146455 1 2 C0.505 1.01 0.505 1.01 0 0 Z " fill="#954F14" transform="translate(166,32)"/>
<path d="M0 0 C7.17795318 0.34180729 13.50836249 1.85744226 20.31811523 4.00854492 C20.99302002 4.21970947 21.6679248 4.43087402 22.36328125 4.6484375 C23.42953735 4.99539673 23.42953735 4.99539673 24.51733398 5.34936523 C27.10048803 6.08683221 27.10048803 6.08683221 30.23461914 6.38696289 C38.93542609 7.60967568 38.93542609 7.60967568 41.97631836 11.58105469 C43.52376398 14.90506485 44.71014059 18.19122523 45.8125 21.6875 C46.23080078 22.86634766 46.64910156 24.04519531 47.08007812 25.25976562 C48.10171841 28.16028458 49.0716818 31.06855266 50 34 C49.01 34 48.02 34 47 34 C46.79503906 32.11667969 46.79503906 32.11667969 46.5859375 30.1953125 C45.33572169 24.10294276 43.70768 19.25860965 39 15 C27.58628436 9.10717978 13.52039712 7.29619427 1 5 C0.67 3.35 0.34 1.7 0 0 Z " fill="#020000" transform="translate(7,131)"/>
<path d="M0 0 C0.58203125 1.890625 0.58203125 1.890625 1 4 C-0.5 6 -0.5 6 -2 8 C-2.6073118 9.98607373 -3.05553708 11.96604748 -3.47265625 14 C-4 16 -4 16 -5.01416016 17.84472656 C-6.75201961 21.64408844 -6.32749678 25.63488244 -6.3125 29.75 C-6.32861328 30.61882812 -6.34472656 31.48765625 -6.36132812 32.3828125 C-6.36577547 38.30667005 -5.34135016 42.56430264 -3 48 C-2.27126675 50.32016214 -1.63590243 52.65205258 -1 55 C-0.34 55 0.32 55 1 55 C1.66 57.31 2.32 59.62 3 62 C1.5 60.625 1.5 60.625 0 59 C0 58.34 0 57.68 0 57 C-0.66 57 -1.32 57 -2 57 C-2.98238408 54.58459694 -3.96100218 52.16778178 -4.9375 49.75 C-5.21529297 49.06808594 -5.49308594 48.38617188 -5.77929688 47.68359375 C-10.11826968 36.9145769 -11.07247877 23.36643871 -7.06640625 12.2578125 C-5.04083239 7.96923488 -2.60304873 3.95932978 0 0 Z " fill="#A0AB1A" transform="translate(110,66)"/>
<path d="M0 0 C2.475 0.495 2.475 0.495 5 1 C4.814375 1.639375 4.62875 2.27875 4.4375 2.9375 C4.293125 3.618125 4.14875 4.29875 4 5 C5.44754255 6.44754255 7.03962913 6.55733561 9 7 C7.72125 7.103125 6.4425 7.20625 5.125 7.3125 C-2.85887858 8.21350197 -10.00897736 10.79013884 -17.1875 14.328125 C-17.785625 14.54984375 -18.38375 14.7715625 -19 15 C-19.66 14.67 -20.32 14.34 -21 14 C-13.92853132 9.25377247 -6.8556026 5.29722585 1 2 C0.67 1.34 0.34 0.68 0 0 Z " fill="#130C02" transform="translate(166,32)"/>
<path d="M0 0 C0.66 0 1.32 0 2 0 C2.66588135 1.15786011 2.66588135 1.15786011 3.34521484 2.33911133 C4.99560333 5.20774654 6.64690593 8.07585143 8.29882812 10.94360352 C9.01306173 12.18395249 9.7269323 13.42451059 10.44042969 14.6652832 C11.46714001 16.4505866 12.49516147 18.2351293 13.5234375 20.01953125 C14.450354 21.62985229 14.450354 21.62985229 15.39599609 23.27270508 C16.53949316 25.21699819 17.74880227 27.1232034 19 29 C18.625 31.1875 18.625 31.1875 18 33 C13.56869832 26.54091558 9.51368197 19.92299218 5.625 13.125 C4.80708984 11.72121094 4.80708984 11.72121094 3.97265625 10.2890625 C3.45832031 9.391875 2.94398437 8.4946875 2.4140625 7.5703125 C1.9495166 6.76352051 1.4849707 5.95672852 1.00634766 5.12548828 C0 3 0 3 0 0 Z " fill="#050101" transform="translate(37,36)"/>
<path d="M0 0 C4.32554804 1.44184935 5.53975272 4.75324862 7.75 8.5 C11.47688621 14.65710661 15.36497924 20.47480969 20 26 C20.66 25.34 21.32 24.68 22 24 C22.86366822 25.78710586 23.71568594 27.5798465 24.5625 29.375 C25.03816406 30.37273437 25.51382813 31.37046875 26.00390625 32.3984375 C26.33261719 33.25695312 26.66132813 34.11546875 27 35 C26.67 35.66 26.34 36.32 26 37 C19.84241437 30.03622935 14.31350099 22.79452719 9.0625 15.125 C8.22972534 13.91299927 8.22972534 13.91299927 7.38012695 12.67651367 C4.59554115 8.5629307 2.08197218 4.51214878 0 0 Z " fill="#A35A17" transform="translate(129,129)"/>
<path d="M0 0 C0.99 0.33 1.98 0.66 3 1 C2.29875 1.53367188 1.5975 2.06734375 0.875 2.6171875 C-10.83504191 11.81338889 -19.48683148 22.308568 -23 37 C-23.33 37 -23.66 37 -24 37 C-23.33756376 23.30965102 -16.17787361 14.68921353 -6.41796875 5.59375 C-4.3012351 3.70035675 -2.16771808 1.83461719 0 0 Z " fill="#7D4811" transform="translate(143,47)"/>
<path d="M0 0 C0.66 0.33 1.32 0.66 2 1 C-4.64849153 8.47007318 -11.40315437 15.47429312 -19 22 C-19 17.83256273 -16.7220201 16.1175327 -14 13.25 C-13.50395264 12.71793945 -13.00790527 12.18587891 -12.49682617 11.63769531 C-8.56892151 7.476431 -4.4406485 3.61359362 0 0 Z " fill="#BDBD1E" transform="translate(131,46)"/>
<path d="M0 0 C-1.47345289 2.94690578 -3.76989978 2.97337822 -6.72265625 4.00390625 C-10.59547424 5.69784894 -13.75212371 8.33086762 -17 11 C-17.66 10.67 -18.32 10.34 -19 10 C-18.01 8.35 -17.02 6.7 -16 5 C-16.66 4.67 -17.32 4.34 -18 4 C-11.54521713 0.17739293 -7.42455611 -1.78739314 0 0 Z " fill="#174E04" transform="translate(145,39)"/>
<path d="M0 0 C0 0.66 0 1.32 0 2 C-0.99 2 -1.98 2 -3 2 C-3.25378418 2.57975586 -3.50756836 3.15951172 -3.76904297 3.75683594 C-5.13758615 6.25072223 -6.66997769 7.89743836 -8.6953125 9.890625 C-9.76845703 10.95410156 -9.76845703 10.95410156 -10.86328125 12.0390625 C-11.60964844 12.76867187 -12.35601562 13.49828125 -13.125 14.25 C-13.87910156 14.99507812 -14.63320312 15.74015625 -15.41015625 16.5078125 C-17.26900772 18.3431342 -19.13237005 20.1736191 -21 22 C-21.66 21.67 -22.32 21.34 -23 21 C-21.12973998 18.93302978 -19.25404816 16.87145703 -17.375 14.8125 C-16.59189453 13.9452832 -16.59189453 13.9452832 -15.79296875 13.06054688 C-12.40951574 9.36381118 -8.89945899 6.14653752 -5 3 C-4.4225 2.401875 -3.845 1.80375 -3.25 1.1875 C-2 0 -2 0 0 0 Z " fill="#009300" transform="translate(112,53)"/>
<path d="M0 0 C6.93 0 13.86 0 21 0 C20.67 0.66 20.34 1.32 20 2 C17.05859375 2.6328125 17.05859375 2.6328125 13.4375 3.125 C12.23996094 3.29257812 11.04242188 3.46015625 9.80859375 3.6328125 C8.88175781 3.75398438 7.95492187 3.87515625 7 4 C7 3.34 7 2.68 7 2 C4.69 1.67 2.38 1.34 0 1 C0 0.67 0 0.34 0 0 Z " fill="#8E3F13" transform="translate(177,37)"/>
<path d="M0 0 C0.66 0 1.32 0 2 0 C2.33 0.66 2.66 1.32 3 2 C3.66 1.34 4.32 0.68 5 0 C5.86366822 1.78710586 6.71568594 3.5798465 7.5625 5.375 C8.27599609 6.87160156 8.27599609 6.87160156 9.00390625 8.3984375 C9.33261719 9.25695312 9.66132813 10.11546875 10 11 C9.67 11.66 9.34 12.32 9 13 C7.4941255 11.21326795 5.9954515 9.42046492 4.5 7.625 C3.6646875 6.62726563 2.829375 5.62953125 1.96875 4.6015625 C0 2 0 2 0 0 Z " fill="#A15116" transform="translate(146,153)"/>
<path d="M0 0 C0.67578125 1.69140625 0.67578125 1.69140625 1 4 C-0.14453125 6.40234375 -0.14453125 6.40234375 -1.8125 8.9375 C-3.94972278 12.22202052 -5.64879294 15.31548904 -7 19 C-7.7109375 17.44921875 -7.7109375 17.44921875 -8 15 C-6.96865675 12.47925882 -5.90461778 10.19835223 -4.625 7.8125 C-4.13 6.85053711 -4.13 6.85053711 -3.625 5.86914062 C-1.19836882 1.19836882 -1.19836882 1.19836882 0 0 Z " fill="#6D8911" transform="translate(110,66)"/>
<path d="M0 0 C-1 2 -1 2 -3.06640625 2.8515625 C-4.30197266 3.23441406 -4.30197266 3.23441406 -5.5625 3.625 C-6.80193359 4.01558594 -6.80193359 4.01558594 -8.06640625 4.4140625 C-8.70449219 4.60742188 -9.34257812 4.80078125 -10 5 C-10 4.34 -10 3.68 -10 3 C-12.31 3.33 -14.62 3.66 -17 4 C-11.6013038 0.4008692 -6.3999927 -0.26122419 0 0 Z " fill="#999918" transform="translate(168,33)"/>
<path d="M0 0 C-1.58667578 3.90285767 -4.13350481 6.33520982 -7.125 9.25 C-8.03507813 10.14203125 -8.94515625 11.0340625 -9.8828125 11.953125 C-10.58148438 12.62859375 -11.28015625 13.3040625 -12 14 C-12 9.87322664 -9.8002029 8.16826067 -7.125 5.3125 C-6.66480469 4.80138672 -6.20460937 4.29027344 -5.73046875 3.76367188 C-2.26326769 0 -2.26326769 0 0 0 Z " fill="#A84B16" transform="translate(140,53)"/>
<path d="M0 0 C0.99 0.33 1.98 0.66 3 1 C2.24074219 1.61488281 1.48148438 2.22976562 0.69921875 2.86328125 C-0.29464844 3.67152344 -1.28851563 4.47976562 -2.3125 5.3125 C-3.29863281 6.11300781 -4.28476563 6.91351563 -5.30078125 7.73828125 C-7.31602166 9.42688356 -9.19488009 11.09630699 -11 13 C-11.66 12.67 -12.32 12.34 -13 12 C-11.3989569 10.3719224 -9.79405264 8.74764115 -8.1875 7.125 C-7.29417969 6.22007813 -6.40085938 5.31515625 -5.48046875 4.3828125 C-3 2 -3 2 0 0 Z " fill="#6F3C0F" transform="translate(143,47)"/>
<path d="M0 0 C1.98 0.99 1.98 0.99 4 2 C4.66 1.34 5.32 0.68 6 0 C6.042721 1.66611905 6.04063832 3.33382885 6 5 C5 6 5 6 2.4375 6.0625 C1.2309375 6.0315625 1.2309375 6.0315625 0 6 C0 4.02 0 2.04 0 0 Z " fill="#88A016" transform="translate(155,173)"/>
<path d="M0 0 C0.66 0.33 1.32 0.66 2 1 C-0.23775234 4.3566285 -0.93320048 4.57996014 -4.625 5.6875 C-5.44226563 5.93886719 -6.25953125 6.19023438 -7.1015625 6.44921875 C-7.72804687 6.63097656 -8.35453125 6.81273437 -9 7 C-6.25604436 4.05278838 -3.61662784 1.80831392 0 0 Z " fill="#1E1804" transform="translate(154,40)"/>
<path d="M0 0 C0 0.66 0 1.32 0 2 C-2.25 3.75 -2.25 3.75 -5 5 C-7.3125 4.1875 -7.3125 4.1875 -9 3 C-3.375 0 -3.375 0 0 0 Z " fill="#007B00" transform="translate(140,38)"/>
<path d="M0 0 C2.6855594 2.6855594 3.06049974 5.37621328 4 9 C1.4375 6.75 1.4375 6.75 -1 4 C-0.8125 1.6875 -0.8125 1.6875 0 0 Z " fill="#8C4813" transform="translate(152,157)"/>
</svg>
